<svg width="34" height="34" viewBox="0 0 34 34" fill="none" xmlns="http://www.w3.org/2000/svg">
<path d="M34 17C34 20.3623 33.003 23.6491 31.135 26.4447C29.267 29.2403 26.612 31.4193 23.5056 32.706C20.3993 33.9926 16.9811 34.3293 13.6835 33.6734C10.3858 33.0174 7.35668 31.3983 4.97918 29.0208C2.60169 26.6433 0.982599 23.6142 0.32665 20.3165C-0.329299 17.0189 0.00735821 13.6007 1.29405 10.4944C2.58074 7.38804 4.75967 4.733 7.55531 2.86502C10.3509 0.997033 13.6377 -4.00948e-08 17 0V17H34Z" fill="black"/>
<path d="M34 17C34 14.7675 33.5603 12.5569 32.706 10.4944C31.8516 8.43185 30.5994 6.55778 29.0208 4.97918C27.4422 3.40059 25.5682 2.14838 23.5056 1.29405C21.4431 0.439718 19.2325 -9.75844e-08 17 0L17 17H34Z" fill="url(#paint0_angular_595_6)"/>
<defs>
<radialGradient id="paint0_angular_595_6" cx="0" cy="0" r="1" gradientUnits="userSpaceOnUse" gradientTransform="translate(17 17) rotate(90) scale(17)">
<stop offset="0.504919" stop-color="#00FFFE"/>
<stop offset="0.622137" stop-color="#0013FF"/>
<stop offset="0.741242" stop-color="#9100FF"/>
</radialGradient>
</defs>
</svg>
